<svg
 xmlns="http://www.w3.org/2000/svg"
 xmlns:xlink="http://www.w3.org/1999/xlink"
 style="isolation:isolate"
 viewBox="30 -5 70 200"
 height="500"
 width="400"
>

    <defs><g id="ikon">
        
        <path d="M 48.1 18.9 C 57.5 8.4 62.1 7.5 68.8 6.9 C 78.0 16.3 100.1 32.1 112.7 39.5 C 126.4 69.3 115.3 113.4 69.5 160.0 C 54.0 150.8 39.7 146.0 26.8 145.4 C 26.5 147.9 23.2 135.6 7.3 108.3 C -3.3 68.4 1.1 26.7 33.1 6.9 C 38.3 13.4 45.2 17.4 48.1 18.9 Z "
        fill="var(--body-color,#eaa)"/>

        <path d="M 36 8 L 49.1 18.0 L 40.3 30 L 36 8 Z M 69.7 10.0 C 90.3 59.1 74.1 107.9 32.9 143.7 C 43.0 144.7 58.9 148.7 69.5 157.4 C 109.7 121.8 124.8 79.8 112.7 39.5 Z " fill-rule="evenodd"
        fill="var(--key-light,hsla(0,100%,80%,0.3))"/>
 
        <path d="M 27.9 137.8 C -1.9 87.8 0.5 44.3 32 10 Q 40 20 37.8 32.7 L 33.8 42.9 L 33.8 42.9 Q 54 15 64.6 12.1 L 69.7 10.0 C 90.3 59.1 74.1 107.9 32.9 143.7 C 31.3 141.3 29.4 140.2 27.9 137.8 Z"
        fill="var(--fill-light, hsla(0,0%,0%,0.3))"/>
    
        <path d="M 27.9 137.8 C -1.9 87.8 0.5 44.3 32 10 L 31.8 4.3 C -20.4 43.0 8.5 126.5 27.9 137.8 Z M 64.6 12.1 L 60 8 L 37 33 L 33.8 42.9 Q 54 15 64.6 12.1 Z"
        fill="var(--back-light,hsla(300,100%,90%,0.05))"/>
        
        <path d="M 90.5 129.6 C 88.5 132.1 86.5 134.6 84.3 137.2 C 77.6 132.1 68.0 126.8 56.8 121.5 C 64.6 110.3 70.3 97.2 73.3 85.8 C 67.4 100.6 49.2 130.9 27.9 137.8 C -26.3 63.7 27.8 9.6 31.8 9.9 C 34.4 16.7 36.4 26.8 33.8 42.9 C 41.6 30.1 52.8 11.8 64.6 12.1 C 71.8 15.4 81.2 40.7 77.1 70.8 C 82.9 49.3 81.3 33.2 77.7 20.0 C 86.2 27.8 98.3 35.7 107.0 39.9 C 120.7 64.2 116.8 94.8 91.6 128.1 C 85.3 123.7 78.3 119.6 70.6 115.8 L 68.0 116.3 C 76.4 120.4 83.8 124.8 90.5 129.6 Z M 81.9 140.0 C 80.5 141.5 79.0 143.1 77.6 144.7 L 77.6 144.7 C 68.8 139.3 59.4 134.4 49.4 130.9 C 51.1 129.0 52.8 126.9 54.4 124.8 C 65.4 128.9 75.0 134.0 81.9 140.0 L 81.9 140.0 Z M 73.1 149.2 C 72.3 150.0 71.5 150.8 70.7 151.6 C 64.9 147.9 52.6 142.0 40.3 139.3 C 41.3 138.4 42.4 137.6 43.4 136.7 C 54.2 139.8 64.1 144.0 73.1 149.2 L 73.1 149.2 L 73.1 149.2 Z M 43.1 23.8 Q 42.1 19.9 41.0 16.4 C 42.5 17.6 44.0 18.7 45.6 19.9 C 44.8 21.2 43.9 22.5 43.1 23.8 L 43.1 23.8 L 43.1 23.8 L 43.1 23.8 L 43.1 23.8 Z M 70.5 0 C 81.0 11.1 96.3 24.4 115.6 34.9 C 129.0 67.3 118.9 115.9 69.5 162.3 C 55.3 152.9 41.1 148.4 26.8 148.9 L 26.8 148.9 C -23.7 81.3 8.1 7.2 33.3 1.1 L 33.3 1.1 Q 40.6 10.5 49.1 15.3 C 55.8 7.1 63.3 1.1 70.5 0 L 70.5 0 L 70.5 0 L 70.5 0 L 70.5 0 L 70.5 0 Z"
        fill-rule="evenodd"
        stroke="var(--outline-color,#000)"
        stroke-width="var(--outline-size,0)"
        fill="var(--outline-color,#000)"/>
   
    </g></defs>
    
    <g>
        <title>
            ikon :::
            
            --body-color : [color];
            --outline-color: [color];
            --outline-size: [size];
            
            --key-light : [color];
            --fill-light: [color];
            --back-light : [color];
            
            ~queviva
        </title>
        <use xlink:href="#ikon" />
    </g>
    
</svg>