<svg
 xmlns="http://www.w3.org/2000/svg"
 xmlns:xlink="http://www.w3.org/1999/xlink"
 
 viewBox="-15 -72 30 140"
 height="600px"
 width="360px"
>
    <defs>
        <g id="custom">
            
            <path d="M-36.3 4.0C-32.8 8.0 -27.8 11.3 -21.4 13.8C-16.3 8.5 -13.2 3.0 -12.1 -2.6C-14.4 -9.1 -21.1 -14.7 -32.2 -19.3C-19.1 -49.4 -8.3 -63.0 1.9 -67.4C9.0 -58.6 26.4 -48.0 33.5 -46.1C46.5 14.0 25.2 59.6 7.3 64.1C0.7 59.4 -16.7 58.3 -22.7 58.9C-33.3 49.2 -38.7 27.8 -36.3 4.0Z"
            style="fill:var(--body-color)" />
                   
            <path d="M -18 -13 L -11 -4 L -14 5 L -10 5 Q 10 5 23.5 -12 L 23.6 -14 Q 0 -9 -18 -13 Z "
                fill="var(--ridge-shade)" />
            
            <path d="M 8.8 -24.5 C 10.5 -45.2 8.8 -59.0 4.3 -65.0 C13.9 -54.7 23.4 -48.5 32.6 -46.4 C45.4 4.6 30.7 56.1 7.8 64.6 C0.6 61.2 -12.5 58.8 -22.5 57.8 Q -5.1 44.2 0.7 21.1 L3.1 12.2 C7.6 13.2 11.8 17.8 15.1 22.2 Q 22 9 23.6 -14 L 7.5 -11.7 C8.2 -16.0 8.8 -24.5 8.8 -24.5 Z "
                fill="var(--key-light)" />
            
            <path d="M -11 -4 L -14 5 L -10 5 Q -12 11 -16 15 Q -24 14 -33 7 Q -36 44 -20.2 53.9 Q -5.1 44.2 0.7 21.1 L 3.1 12.2 C 7.6 13.2 11.8 17.8 15.1 22.2 Q 22 9 23.6 -14 L 7.5 -11.7 C 8.2 -16.0 8.8 -24.5 8.8 -24.5 C 10.5 -45.2 8.8 -59.0 4.3 -65.0 C 1 -65 -17 -50 -27 -18 L -18 -13 Z "
                fill="var(--fill-light)" />
                
            <path d="M -14 5 L -10 5 Q -12 11 -16 15 L -21 14 Z M -33 7 Q -36 44 -20.2 53.9 Q -40 47 -36 4 Z M 4.3 -65 C 1 -65 -17 -50 -27 -18 L -32 -20 Q -18 -62 4.3 -65 Z"
                fill="var(--back-light)" />
            
            <path d="M8.8 -24.5C10.5 -45.2 8.8 -59.0 4.3 -65.0C13.9 -54.7 23.4 -48.5 32.6 -46.4C45.4 4.6 30.7 56.1 7.8 64.6C0.6 61.2 -12.5 58.8 -22.5 57.8C-14.7 56.8 -6.1 44.2 0.7 21.1L3.1 12.2C7.6 13.2 11.8 17.8 15.1 22.2C17.4 19.8 20.2 8.7 23.6 -9.9C10.7 -1.3 1.3 -1.2 -10.0 -1.9C-11.8 -5.5 -15.0 -9.7 -19.7 -14.5C-13.6 -12.0 -4.2 -11.1 7.5 -11.7C8.2 -16.0 8.8 -24.5 8.8 -24.5Z
            "
            fill="none" />
        
            <path d="M20.6 51.4C37.6 28.6 41.4 -21.5 29.9 -44.6C22.4 -46.6 15.8 -49.8 10.1 -54.3C11.1 -45.8 10.2 -35.4 8.8 -24.5C10.5 -46.7 7.2 -59.4 1.4 -62.8C-6.2 -63.6 -19.9 -44.7 -28.6 -20.3C-17.8 -12.2 -0.9 -10.4 22.2 -14.9C24.4 -15.6 22.2 -17.2 19.0 -17.5C21.7 -18.3 24.5 -18.1 25.9 -16.9C27.0 -15.3 26.9 -12.0 26.4 -10.1C25.7 -14.3 24.1 -13.7 24.3 -11.6C24.3 -1.1 21.1 13.5 15.3 25.8C11.9 19.4 7.0 15.2 3.0 13.3C-7.9 19.5 -24.5 17.8 -34.0 8.2C-38.3 32.6 -30.8 48.1 -22.2 51.9C-15.7 52.3 -4.2 37.1 0.7 21.1C-1.5 30.5 -5.0 39.3 -9.0 46.2C1.0 48.7 9.1 52.1 16.9 55.7C17.9 54.8 18.8 53.8 19.7 52.7C14.3 49.4 6.8 46.0 -2.7 42.7C8.3 45.4 15.4 48.3 20.6 51.4Z M-10.1 48.0C-10.7 49.1 -11.3 50.0 -12.0 50.9C-1.0 52.6 7.2 55.4 13.6 58.6C14.2 58.2 14.7 57.7 15.3 57.3C8.9 53.5 0.9 50.2 -10.1 48.0Z M-14.7 54.5C-15.1 55.0 -15.6 55.5 -16.0 55.9C-7.1 56.3 0.7 58.6 8.0 61.8C8.4 61.6 8.8 61.4 9.2 61.2C4.4 58.6 -3.3 56.2 -14.7 54.5Z M-15.5 -11.6C-4.7 -9.5 8.0 -10.0 22.6 -13.1C23.3 -4.4 15.3 18.6 14.5 19.2C13.4 16.8 10.2 11.6 4.2 7.7C-3.8 13.4 -11.2 15.0 -17.8 13.8C-14.5 10.1 -11.3 3.7 -10.0 -1.9C-2.9 -0.7 10.1 -0.8 19.6 -7.6C9.0 -0.7 -5.4 -2.6 -9.9 -4.5C-11.4 -7.3 -13.2 -9.7 -15.5 -11.6Z M-23.1 60.9C-30.7 53.7 -41.2 37.0 -37.4 0.0C-33.6 5.3 -28.9 9.5 -23.7 11.9C-17.6 7.1 -13.7 0.5 -12.8 -3.9C-14.9 -7.3 -20.7 -12.4 -25.8 -14.7C-28.7 -15.9 -31.4 -17.4 -33.9 -19.1L-34.2 -19.1C-28.9 -40.6 -13.3 -62.1 3.1 -70.4C4.2 -69.4 5.2 -68.2 6.1 -66.8C12.4 -60.0 23.7 -50.6 35.1 -48.5C49.0 2.2 28.1 61.6 7.5 66.4C-2.3 61.8 -16.6 60.6 -23.1 60.9Z" fill-rule="evenodd"
            fill="var(--outline-color)" />
            
        </g>
    </defs>
    
    <g>
        <title>
css vars :::

--body-color : [color];
--outline-color : [color];
--ridge-shade: [color];
--key-light : [color];
--fill-light: [color];
--back-light : [color];

   ~queviva
        </title>

        <use id="default" xlink:href="#custom"
         style="
         
            --body-color: #ddd;
            --outline-color: #000;
            --ridge-shade: hsla(0,0%,0%,0.4);
            
            --key-light: hsla(0,0%,0%,0.4);
            --fill-light: hsla(0,0%,0%,0.0);
            --back-light: hsla(40,100%,50%,0.0);
            
         "
        />
    </g>
</svg>